<?xml version="1.0" standalone="no"?>
<!DOCTYPE svg PUBLIC "-//W3C//DTD SVG 20010904//EN"
 "http://www.w3.org/TR/2001/REC-SVG-20010904/DTD/svg10.dtd">
<svg version="1.0" xmlns="http://www.w3.org/2000/svg"
 width="260.000000pt" height="260.000000pt" viewBox="0 0 260.000000 260.000000"
 preserveAspectRatio="xMidYMid meet">
<metadata>
Created by potrace 1.11, written by Peter Selinger 2001-2013
</metadata>
<g transform="translate(0.000000,260.000000) scale(0.100000,-0.100000)"
fill="#000000" stroke="none">
<path d="M935 2345 c-277 -64 -421 -359 -298 -611 14 -29 45 -75 70 -103 l44
-51 62 44 c34 24 77 51 95 60 l33 17 -44 34 c-59 45 -88 97 -95 167 -6 70 15
131 60 178 72 75 196 95 284 46 26 -15 48 -25 49 -24 1 2 16 47 32 101 l31 97
-32 14 c-90 41 -200 52 -291 31z"/>
<path d="M1521 2314 c-156 -42 -292 -182 -318 -329 -10 -59 -7 -175 6 -188 6
-6 54 -11 114 -12 l103 -1 -12 36 c-29 80 -8 175 54 238 44 45 88 64 157 68
103 5 189 -49 233 -146 9 -19 17 -36 18 -38 1 -2 144 93 173 114 7 6 -51 96
-86 135 -103 114 -285 165 -442 123z"/>
<path d="M388 2021 c-286 -92 -399 -430 -223 -667 72 -97 181 -161 303 -178
35 -4 42 -3 42 12 0 9 16 53 35 97 19 44 35 83 35 86 0 3 -26 6 -58 5 -213 -2
-316 262 -156 402 45 41 99 62 156 62 l34 0 -28 87 c-15 48 -28 93 -28 100 0
18 -44 15 -112 -6z"/>
<path d="M1994 1935 c-74 -16 -159 -56 -201 -95 -77 -72 -125 -150 -92 -150 5
0 41 -20 80 -45 67 -44 89 -49 89 -20 0 8 19 32 42 54 151 146 401 44 401
-164 0 -115 -79 -208 -194 -230 l-35 -6 23 -71 c13 -39 23 -81 23 -94 0 -28 9
-29 80 -8 128 38 232 137 281 269 27 74 29 198 4 270 -73 209 -289 334 -501
290z"/>
<path d="M1175 1704 c-236 -41 -439 -192 -542 -404 -61 -125 -74 -176 -79
-300 -15 -423 321 -768 751 -771 128 -1 225 20 340 76 195 94 337 259 400 466
23 75 31 232 16 324 -25 155 -114 317 -230 420 -19 16 -39 35 -45 40 -45 43
-214 125 -286 140 -110 23 -230 26 -325 9z m232 -229 c199 -30 375 -200 416
-400 34 -171 -16 -336 -139 -459 -223 -224 -592 -203 -786 44 -135 172 -144
407 -23 590 117 176 312 259 532 225z"/>
</g>
</svg>
